<svg width="17" height="14" viewBox="0 0 17 14" fill="none" xmlns="http://www.w3.org/2000/svg">
<path fill-rule="evenodd" clip-rule="evenodd" d="M2.14289 5.71439C1.43146 5.71439 0.857178 6.28867 0.857178 7.0001C0.857178 7.71153 1.43146 8.28582 2.14289 8.28582C2.85432 8.28582 3.42861 7.71153 3.42861 7.0001C3.42861 6.28867 2.85432 5.71439 2.14289 5.71439ZM2.14289 0.571533C1.43146 0.571533 0.857178 1.14582 0.857178 1.85725C0.857178 2.56868 1.43146 3.14296 2.14289 3.14296C2.85432 3.14296 3.42861 2.56868 3.42861 1.85725C3.42861 1.14582 2.85432 0.571533 2.14289 0.571533ZM2.14289 10.8572C1.43146 10.8572 0.857178 11.4401 0.857178 12.143C0.857178 12.8458 1.44003 13.4287 2.14289 13.4287C2.84575 13.4287 3.42861 12.8458 3.42861 12.143C3.42861 11.4401 2.85432 10.8572 2.14289 10.8572ZM4.71432 13.0001H16.7143V11.2858H4.71432V13.0001ZM4.71432 7.85725H16.7143V6.14296H4.71432V7.85725ZM4.71432 1.0001V2.71439H16.7143V1.0001H4.71432Z" fill="#101828"/>
</svg>
