<svg width="14" height="16" viewBox="0 0 14 16" fill="none" xmlns="http://www.w3.org/2000/svg">
<path d="M11.25 11.06C10.68 11.06 10.17 11.285 9.78 11.6375L4.4325 8.525C4.47 8.3525 4.5 8.18 4.5 8C4.5 7.82 4.47 7.6475 4.4325 7.475L9.72 4.3925C10.125 4.7675 10.6575 5 11.25 5C12.495 5 13.5 3.995 13.5 2.75C13.5 1.505 12.495 0.5 11.25 0.5C10.005 0.5 9 1.505 9 2.75C9 2.93 9.03 3.1025 9.0675 3.275L3.78 6.3575C3.375 5.9825 2.8425 5.75 2.25 5.75C1.005 5.75 0 6.755 0 8C0 9.245 1.005 10.25 2.25 10.25C2.8425 10.25 3.375 10.0175 3.78 9.6425L9.12 12.7625C9.0825 12.92 9.06 13.085 9.06 13.25C9.06 14.4575 10.0425 15.44 11.25 15.44C12.4575 15.44 13.44 14.4575 13.44 13.25C13.44 12.0425 12.4575 11.06 11.25 11.06Z" fill="#101828"/>
</svg>
